<svg width="416" height="466" viewBox="0 0 416 466" fill="none" xmlns="http://www.w3.org/2000/svg">
<path d="M220.888 245.144C225.565 240.102 233.133 242.274 235.025 244.334L237.788 247.296C230.542 252.127 235.621 251.09 230.622 257.797C226.623 263.162 219.267 264.388 216.088 264.331C216.688 263.213 217.917 260.669 218.033 259.432C218.179 257.885 215.042 251.447 220.888 245.144Z" fill="#34C186"/>
<path d="M297.157 252.265C297.157 252.265 297.157 252.265 297.157 252.264L296.525 252.46C289.401 246.184 291.92 251.243 283.452 247.861C276.677 245.156 270.266 237.395 269.434 234.031C269.434 234.031 282.509 228.318 290.79 232.706C297.414 236.215 298.426 239.013 297.157 252.264L297.158 252.264L297.157 252.265Z" fill="#34C186"/>
<path d="M339.155 251.664C339.155 251.664 339.155 251.664 339.155 251.663L338.711 251.609C336.056 245.767 336.208 249.584 331.923 245.155C328.495 241.611 326.69 235.052 327.109 232.748C327.109 232.748 336.752 232.844 340.643 237.842C343.756 241.839 343.605 243.844 339.155 251.663L339.155 251.663L339.155 251.664Z" fill="#34C186"/>
<path d="M299.846 206C304.105 207.311 305.212 211.187 305.212 213.115L305.745 216.71L305.397 216.895C300.538 214.025 302.572 216.698 297.251 215.667C292.994 214.843 288.386 211.027 287.525 209.156C287.525 209.156 294.522 204.362 299.846 206Z" fill="#34C186"/>
<path d="M244.036 300.575C257.386 297.174 266.427 305.26 267.373 310.783L270.205 320.34L272.387 322.853C254.94 323.106 262.365 326.596 246.664 332.448C234.102 337.13 220.389 331.197 215.103 327.645C217.328 326.417 222.161 323.471 223.702 321.516C225.627 319.072 227.347 304.826 244.036 300.575Z" fill="#34C186"/>
<path d="M278.503 358.916C276.946 343.205 274.211 312.431 284.161 286.386C295.191 257.512 313.233 207.63 301.951 183.33M274.256 356.369C274.256 354.107 274.61 313.457 260.598 281.186C249.388 255.369 235.704 246.134 232.096 238.142" stroke="#604941" stroke-width="4" stroke-linecap="round"/>
<path d="M326.034 281.231C308.329 278.957 298.004 291.673 294.675 298.293L287.74 311.771C310.219 309.353 298.37 315.731 319.485 320.788C336.377 324.834 359.507 318.55 365.748 313.15C365.748 313.15 348.167 284.074 326.034 281.231Z" fill="#34C186"/>
<g style="mix-blend-mode:multiply">
<rect x="154.556" y="442.993" width="261.149" height="22.8177" rx="11.4089" fill="#8F7A6E"/>
</g>
<g style="mix-blend-mode:multiply">
<rect x="45.3584" y="442.993" width="100.577" height="22.8177" rx="11.4089" fill="#8F7A6E"/>
</g>
<path d="M281.648 356.879C279.114 350.161 277.725 336.273 281.648 325.202C294.198 289.78 304.462 272.22 349.653 243.815M274.748 357.951C274.481 356.957 269.852 339.06 259.899 326.533C251.936 316.512 244.838 314.066 242.313 310.981" stroke="#604941" stroke-width="4" stroke-linecap="round"/>
<mask id="mask0_1_131" style="mask-type:alpha" maskUnits="userSpaceOnUse" x="230" y="352" width="95" height="102">
<path d="M230.655 366.268V358.789C230.655 355.474 233.343 352.787 236.658 352.789L318.812 352.818C322.124 352.819 324.809 355.505 324.809 358.818V366.307C324.809 367.149 324.126 367.832 323.284 367.832C322.507 367.832 321.854 368.416 321.768 369.188L312.885 448.898C312.814 449.528 312.282 450.005 311.647 450.005C310.96 450.005 310.402 450.562 310.402 451.25V451.572C310.402 452.437 309.701 453.139 308.836 453.139H246.258C245.393 453.139 244.691 452.437 244.691 451.572V451.092C244.691 450.492 244.205 450.005 243.605 450.005C243.051 450.005 242.586 449.589 242.524 449.038L233.661 369.116C233.576 368.353 232.931 367.775 232.163 367.775C231.33 367.775 230.655 367.1 230.655 366.268Z" fill="#FBAE96"/>
</mask>
<g mask="url(#mask0_1_131)">
<path d="M230.655 366.268V358.789C230.655 355.474 233.343 352.787 236.658 352.789L318.812 352.818C322.124 352.819 324.809 355.505 324.809 358.818V366.307C324.809 367.149 324.126 367.832 323.284 367.832C322.507 367.832 321.854 368.416 321.768 369.188L312.885 448.898C312.814 449.528 312.282 450.005 311.647 450.005C310.96 450.005 310.402 450.562 310.402 451.25V451.572C310.402 452.437 309.701 453.139 308.836 453.139H246.258C245.393 453.139 244.691 452.437 244.691 451.572V451.092C244.691 450.492 244.205 450.005 243.605 450.005C243.051 450.005 242.586 449.589 242.524 449.038L233.661 369.116C233.576 368.353 232.931 367.775 232.163 367.775C231.33 367.775 230.655 367.1 230.655 366.268Z" fill="#FBAE96"/>
<g style="mix-blend-mode:multiply" opacity="0.4">
<path fill-rule="evenodd" clip-rule="evenodd" d="M229.332 370.11C229.332 368.823 230.375 367.779 231.662 367.779H323.546C323.625 367.779 323.688 367.843 323.688 367.921V367.921C323.688 367.999 323.752 368.063 323.83 368.063L323.873 368.063C323.975 368.063 324.057 368.145 324.057 368.247L324.057 444.083C324.057 449.882 319.356 454.583 313.557 454.583H304.034C302.506 454.583 301.268 455.822 301.268 457.35V457.35C301.268 458.878 300.029 460.116 298.501 460.116H238.969C236.167 460.116 233.896 457.845 233.896 455.044V455.044C233.896 452.243 236.167 449.972 238.969 449.972H287.725C293.524 449.972 298.225 445.271 298.225 439.472L298.225 382.94C298.225 377.141 293.524 372.44 287.725 372.44H231.662C230.375 372.44 229.332 371.397 229.332 370.11V370.11Z" fill="#EB4073"/>
</g>
</g>
<path d="M262.225 264.746C255.191 270.594 257.53 280.802 260.128 283.464L263.863 287.348C270.803 278.072 269.06 284.743 278.327 278.588C285.741 273.664 287.901 263.982 288.054 259.756C286.526 260.472 283.059 261.921 281.407 261.986C279.343 262.068 271.018 257.437 262.225 264.746Z" fill="#34C186"/>
<path d="M244.822 325.16C252.572 320.301 261.541 325.708 263.26 329.007L265.784 333.768C254.806 337.467 261.688 337.892 252.949 344.776C245.957 350.284 236.085 349.315 232.023 348.142C233.18 346.914 235.638 344.072 236.215 342.523C236.937 340.587 235.134 331.233 244.822 325.16Z" fill="#56DD84"/>
<path d="M290.09 270.67C298.642 273.916 299.747 284.33 298.154 287.692L295.883 292.578C286.306 286.06 290.123 291.802 279.358 288.992C270.746 286.743 265.559 278.288 264.042 274.341C265.719 274.522 269.469 274.766 271.052 274.291C273.031 273.697 279.4 266.613 290.09 270.67Z" fill="#56DD84"/>
<path d="M252.548 239.351C245.684 239.783 242.578 247.018 242.976 249.786L243.522 253.8C251.848 251.245 247.832 254.522 256.188 254.894C262.873 255.191 268.477 250.27 270.443 247.772C269.198 247.529 266.45 246.872 265.419 246.179C264.129 245.313 261.127 238.81 252.548 239.351Z" fill="#56DD84"/>
<path d="M306.997 239.629C296.467 242.87 293.729 252.453 293.729 257.221L292.413 266.108L293.272 266.565C305.287 259.469 300.256 266.077 313.413 263.53C323.938 261.493 335.332 252.058 337.461 247.431C337.461 247.431 320.16 235.579 306.997 239.629Z" fill="#56DD84"/>
<path d="M311.793 199.529C307.534 200.839 306.427 204.715 306.427 206.644L305.894 210.238L306.242 210.423C311.101 207.553 309.067 210.226 314.388 209.196C318.645 208.371 323.253 204.555 324.114 202.684C324.114 202.684 317.117 197.89 311.793 199.529Z" fill="#56DD84"/>
<path d="M336.469 255.517C326.282 253.942 320.063 260.889 318.115 264.902L313.376 271.844L313.913 272.58C326.924 271.516 319.99 275.023 332.104 278.254C341.795 280.839 355.24 277.553 358.922 274.529C358.922 274.529 349.203 257.485 336.469 255.517Z" fill="#56DD84"/>
<path d="M220.618 196.202C223.071 193.509 227.308 193.509 229.761 196.202V196.202C231.388 197.988 233.907 198.663 236.209 197.93V197.93C239.68 196.824 243.349 198.943 244.128 202.501V202.501C244.644 204.862 246.487 206.705 248.848 207.222V207.222C252.406 208 254.525 211.669 253.419 215.14V215.14C252.686 217.442 253.361 219.961 255.147 221.588V221.588C257.84 224.041 257.84 228.278 255.147 230.731V230.731C253.361 232.358 252.686 234.877 253.419 237.179V237.179C254.525 240.65 252.406 244.319 248.848 245.098V245.098C246.487 245.614 244.644 247.457 244.128 249.818V249.818C243.349 253.376 239.68 255.495 236.209 254.39V254.39C233.907 253.656 231.388 254.331 229.761 256.117V256.117C227.308 258.81 223.071 258.81 220.618 256.117V256.117C218.991 254.331 216.472 253.656 214.17 254.39V254.39C210.699 255.495 207.03 253.376 206.252 249.818V249.818C205.735 247.457 203.892 245.614 201.531 245.098V245.098C197.973 244.319 195.854 240.65 196.96 237.179V237.179C197.693 234.877 197.018 232.358 195.232 230.731V230.731C192.539 228.278 192.539 224.041 195.232 221.588V221.588C197.018 219.961 197.693 217.442 196.96 215.14V215.14C195.854 211.669 197.973 208 201.531 207.222V207.222C203.892 206.705 205.735 204.862 206.252 202.501V202.501C207.03 198.943 210.699 196.824 214.17 197.93V197.93C216.472 198.663 218.991 197.988 220.618 196.202V196.202Z" fill="#FFF1A6"/>
<circle cx="225.19" cy="226.16" r="19.8559" fill="#FFD260"/>
<path d="M220.864 230.633L222.926 230.08C223.224 231.194 224.89 231.763 226.57 231.313C228.251 230.863 229.409 229.536 229.11 228.423C228.806 227.289 227.624 227.164 225.21 227.226C222.879 227.265 219.975 227.314 219.207 224.448C218.713 222.603 219.808 220.631 221.76 219.544L221.158 217.297L224.25 216.469L224.852 218.716C227.085 218.681 229.02 219.841 229.515 221.686L227.453 222.239C227.155 221.126 225.489 220.556 223.809 221.006C222.129 221.456 220.971 222.783 221.269 223.896C221.573 225.03 222.755 225.155 225.169 225.094C227.501 225.054 230.404 225.005 231.172 227.871C231.666 229.716 230.571 231.689 228.619 232.775L229.221 235.022L226.129 235.85L225.527 233.603C223.294 233.638 221.359 232.478 220.864 230.633Z" fill="#CA7E46"/>
<path d="M220.021 296.598C219.824 294.28 221.663 292.295 223.989 292.315V292.315C225.532 292.327 226.941 291.441 227.597 290.044V290.044C228.586 287.938 231.171 287.139 233.175 288.319V288.319C234.505 289.101 236.169 289.038 237.435 288.156V288.156C239.344 286.827 241.983 287.427 243.129 289.451V289.451C243.889 290.794 245.362 291.571 246.9 291.44V291.44C249.217 291.244 251.202 293.082 251.183 295.408V295.408C251.17 296.952 252.057 298.361 253.454 299.017V299.017C255.559 300.005 256.359 302.59 255.179 304.595V304.595C254.396 305.925 254.46 307.589 255.342 308.855V308.855C256.671 310.764 256.071 313.402 254.047 314.548V314.548C252.704 315.309 251.927 316.781 252.057 318.319V318.319C252.254 320.637 250.415 322.622 248.089 322.602V322.602C246.546 322.589 245.137 323.476 244.481 324.873V324.873C243.492 326.979 240.907 327.778 238.903 326.598V326.598C237.573 325.816 235.909 325.879 234.643 326.761V326.761C232.734 328.09 230.095 327.49 228.949 325.466V325.466C228.189 324.123 226.716 323.346 225.178 323.477V323.477C222.861 323.673 220.876 321.834 220.895 319.508V319.508C220.908 317.965 220.021 316.556 218.624 315.9V315.9C216.519 314.912 215.719 312.327 216.899 310.322V310.322C217.682 308.992 217.618 307.328 216.736 306.062V306.062C215.407 304.153 216.007 301.515 218.032 300.368V300.368C219.374 299.608 220.151 298.135 220.021 296.598V296.598Z" fill="#FFF1A6"/>
<circle cx="236.039" cy="307.458" r="12.6803" transform="rotate(-47.1858 236.039 307.458)" fill="#FFD260"/>
<path d="M236.257 311.426L236.893 310.221C237.544 310.564 238.534 310.031 239.053 309.048C239.571 308.066 239.452 306.948 238.801 306.604C238.138 306.254 237.566 306.754 236.547 307.912C235.554 309.021 234.317 310.402 232.641 309.518C231.562 308.949 231.113 307.58 231.451 306.194L230.137 305.501L231.091 303.693L232.405 304.386C233.358 303.324 234.742 302.922 235.821 303.491L235.185 304.696C234.534 304.353 233.544 304.886 233.025 305.869C232.507 306.851 232.626 307.969 233.277 308.313C233.94 308.663 234.512 308.163 235.531 307.005C236.524 305.896 237.761 304.515 239.437 305.399C240.516 305.968 240.965 307.337 240.627 308.723L241.941 309.416L240.987 311.224L239.673 310.531C238.72 311.593 237.336 311.995 236.257 311.426Z" fill="#CA7E46"/>
<path d="M376.126 232.514C378.231 233.505 379.027 236.091 377.845 238.094V238.094C377.06 239.423 377.122 241.087 378.002 242.354V242.354C379.329 244.265 378.725 246.903 376.7 248.046V248.046C375.356 248.805 374.577 250.277 374.706 251.814V251.814C374.899 254.132 373.058 256.115 370.732 256.093V256.093C369.189 256.078 367.779 256.963 367.121 258.359V258.359C366.13 260.463 363.544 261.26 361.541 260.077V260.077C360.212 259.293 358.548 259.354 357.28 260.234V260.234C355.37 261.561 352.732 260.958 351.588 258.932V258.932C350.83 257.589 349.358 256.81 347.82 256.938V256.938C345.502 257.132 343.52 255.291 343.542 252.965V252.965C343.557 251.422 342.672 250.011 341.276 249.354V249.354C339.171 248.363 338.375 245.777 339.558 243.773V243.773C340.342 242.444 340.28 240.78 339.4 239.513V239.513C338.074 237.602 338.677 234.965 340.703 233.821V233.821C342.046 233.062 342.825 231.591 342.696 230.053V230.053C342.503 227.735 344.344 225.752 346.67 225.775V225.775C348.213 225.79 349.623 224.904 350.281 223.508V223.508C351.272 221.404 353.858 220.608 355.862 221.79V221.79C357.19 222.575 358.854 222.513 360.122 221.633V221.633C362.032 220.306 364.67 220.91 365.814 222.935V222.935C366.572 224.279 368.044 225.058 369.582 224.929V224.929C371.9 224.735 373.882 226.577 373.86 228.903V228.903C373.845 230.446 374.73 231.856 376.126 232.514V232.514Z" fill="#FFF1A6"/>
<circle cx="358.701" cy="240.934" r="12.6803" transform="rotate(72.8863 358.701 240.934)" fill="#FFD260"/>
<path d="M355.158 239.135L355.883 240.289C355.259 240.68 355.225 241.804 355.815 242.745C356.406 243.686 357.433 244.143 358.056 243.752C358.691 243.354 358.545 242.608 358.054 241.147C357.592 239.731 357.017 237.968 358.621 236.961C359.654 236.312 361.064 236.61 362.094 237.597L363.352 236.808L364.439 238.539L363.181 239.329C363.622 240.685 363.277 242.084 362.244 242.733L361.519 241.578C362.143 241.187 362.177 240.063 361.587 239.122C360.996 238.182 359.969 237.724 359.346 238.115C358.711 238.514 358.857 239.259 359.348 240.721C359.81 242.136 360.385 243.899 358.781 244.906C357.748 245.555 356.338 245.257 355.308 244.27L354.05 245.06L352.963 243.328L354.221 242.539C353.78 241.182 354.125 239.783 355.158 239.135Z" fill="#CA7E46"/>
<path d="M311.404 133.151C314.219 130.061 319.082 130.061 321.898 133.151V133.151C323.766 135.201 326.656 135.976 329.299 135.135V135.135C333.282 133.866 337.494 136.298 338.387 140.382V140.382C338.98 143.091 341.096 145.207 343.805 145.8V145.8C347.889 146.693 350.321 150.904 349.052 154.888V154.888C348.211 157.53 348.985 160.421 351.035 162.289V162.289C354.126 165.104 354.126 169.967 351.035 172.783V172.783C348.985 174.651 348.211 177.541 349.052 180.184V180.184C350.321 184.168 347.889 188.379 343.805 189.272V189.272C341.096 189.865 338.98 191.981 338.387 194.69V194.69C337.494 198.774 333.282 201.206 329.299 199.937V199.937C326.656 199.096 323.766 199.87 321.898 201.92V201.92C319.082 205.011 314.219 205.011 311.404 201.92V201.92C309.536 199.87 306.645 199.096 304.003 199.937V199.937C300.019 201.206 295.808 198.774 294.914 194.69V194.69C294.322 191.981 292.206 189.865 289.497 189.272V189.272C285.412 188.379 282.981 184.168 284.249 180.184V180.184C285.091 177.541 284.316 174.651 282.266 172.783V172.783C279.176 169.967 279.176 165.104 282.266 162.289V162.289C284.316 160.421 285.091 157.53 284.249 154.888V154.888C282.981 150.904 285.412 146.693 289.497 145.8V145.8C292.206 145.207 294.322 143.091 294.914 140.382V140.382C295.808 136.298 300.019 133.866 304.003 135.135V135.135C306.645 135.976 309.536 135.201 311.404 133.151V133.151Z" fill="#FFF1A6"/>
<circle cx="316.651" cy="168.797" r="25.1238" fill="#FFD260"/>
<path d="M310.574 172.77H313.223C313.223 174.2 315.037 175.419 317.196 175.419C319.355 175.419 321.169 174.2 321.169 172.77C321.169 171.313 319.792 170.784 316.878 170.082C314.071 169.38 310.574 168.506 310.574 164.824C310.574 162.453 312.521 160.44 315.209 159.765V156.878H319.183V159.765C321.871 160.44 323.818 162.453 323.818 164.824H321.169C321.169 163.394 319.355 162.175 317.196 162.175C315.037 162.175 313.223 163.394 313.223 164.824C313.223 166.281 314.6 166.811 317.514 167.512C320.321 168.214 323.818 169.088 323.818 172.77C323.818 175.141 321.871 177.154 319.183 177.829V180.716H315.209V177.829C312.521 177.154 310.574 175.141 310.574 172.77Z" fill="#CA7E46"/>
<path d="M172.458 131.85C198.69 132.681 255.108 148.871 270.918 206.986M172.458 128.645C193.764 120.811 243.285 111.481 270.918 136.835M169.075 130.781C190.441 138.853 210.873 155.599 215.716 176.965M175.192 129.713C195.77 125.457 222.402 131.088 238.016 137.188M248.85 141.42C261.222 147.356 269.364 156.598 271.453 163.474" stroke="#3FAEFF" stroke-width="3" stroke-linecap="round" stroke-dasharray="8 8"/>
<mask id="mask1_1_131" style="mask-type:alpha" maskUnits="userSpaceOnUse" x="11" y="55" width="171" height="98">
<path fill-rule="evenodd" clip-rule="evenodd" d="M164.635 124.207C168.013 125.072 171.601 124.385 174.42 122.332L177.318 120.221C177.854 119.83 178.52 119.658 179.179 119.74V119.74C180.719 119.93 181.756 121.411 181.407 122.924L178.298 136.421C178.026 137.604 176.956 138.43 175.743 138.394V138.394C175.175 138.377 174.63 138.171 174.193 137.808L172.316 136.249C170.357 134.623 167.835 133.839 165.3 134.067L133.497 136.933C120.553 138.1 107.991 141.886 96.5722 148.049C95.6727 148.535 94.9343 149.269 94.4233 150.154V150.154C92.8529 152.874 89.3749 153.806 86.6549 152.236L17.9742 112.583C15.9412 111.409 15.2446 108.81 16.4184 106.777V106.777C17.3718 105.125 17.1088 103.041 15.7751 101.678L13.4628 99.3155C10.7621 96.5559 10.2295 92.3355 12.1602 88.9915L26.0395 64.9517C27.9567 61.6311 31.8702 60.0184 35.5702 61.0243L38.7092 61.8777C40.5592 62.3806 42.5159 61.5743 43.4745 59.9139V59.9139C44.6407 57.894 47.2236 57.2019 49.2436 58.3681L52.2131 60.0826C55.1861 61.799 58.9382 61.3256 61.3916 58.9245L61.9095 58.4176C64.6691 55.7168 68.8895 55.1843 72.2335 57.1149L108.997 78.3402C112.317 80.2573 113.93 84.1708 112.924 87.8709L112.754 88.4979C111.848 91.8284 113.3 95.351 116.289 97.0767L117.859 97.9832C120.628 99.582 121.577 103.123 119.978 105.892L119.562 106.612C118.585 108.304 118.78 110.429 120.049 111.914V111.914C120.667 112.637 121.492 113.152 122.412 113.387L164.635 124.207ZM20.095 93.0127C21.4625 94.3772 23.7519 94.0745 24.7178 92.4015L35.1995 74.2468C36.1743 72.5583 35.2657 70.406 33.3759 69.9268V69.9268C32.1003 69.6034 30.7651 70.167 30.1071 71.3067L19.6255 89.4614C18.9595 90.6149 19.1522 92.072 20.095 93.0127V93.0127ZM102.642 82.4077C103.781 83.0657 104.345 84.4009 104.022 85.6765V85.6765C103.542 87.5663 101.39 88.4749 99.7016 87.5001L68.8235 69.6726C67.1505 68.7067 66.8478 66.4173 68.2123 65.0498V65.0498C69.153 64.1069 70.6101 63.9143 71.7636 64.5802L102.642 82.4077Z" fill="#55D77A"/>
</mask>
<g mask="url(#mask1_1_131)">
<path fill-rule="evenodd" clip-rule="evenodd" d="M164.635 124.207C168.013 125.072 171.601 124.385 174.42 122.332L177.318 120.221C177.854 119.83 178.52 119.658 179.179 119.74V119.74C180.719 119.93 181.756 121.411 181.407 122.924L178.298 136.421C178.026 137.604 176.956 138.43 175.743 138.394V138.394C175.175 138.377 174.63 138.171 174.193 137.808L172.316 136.249C170.357 134.623 167.835 133.839 165.3 134.067L133.497 136.933C120.553 138.1 107.991 141.886 96.5722 148.049C95.6727 148.535 94.9343 149.269 94.4233 150.154V150.154C92.8529 152.874 89.3749 153.806 86.6549 152.236L17.9742 112.583C15.9412 111.409 15.2446 108.81 16.4184 106.777V106.777C17.3718 105.125 17.1088 103.041 15.7751 101.678L13.4628 99.3155C10.7621 96.5559 10.2295 92.3355 12.1602 88.9915L26.0395 64.9517C27.9567 61.6311 31.8702 60.0184 35.5702 61.0243L38.7092 61.8777C40.5592 62.3806 42.5159 61.5743 43.4745 59.9139V59.9139C44.6407 57.894 47.2236 57.2019 49.2436 58.3681L52.2131 60.0826C55.1861 61.799 58.9382 61.3256 61.3916 58.9245L61.9095 58.4176C64.6691 55.7168 68.8895 55.1843 72.2335 57.1149L108.997 78.3402C112.317 80.2573 113.93 84.1708 112.924 87.8709L112.754 88.4979C111.848 91.8284 113.3 95.351 116.289 97.0767L117.859 97.9832C120.628 99.582 121.577 103.123 119.978 105.892L119.562 106.612C118.585 108.304 118.78 110.429 120.049 111.914V111.914C120.667 112.637 121.492 113.152 122.412 113.387L164.635 124.207ZM20.095 93.0127C21.4625 94.3772 23.7519 94.0745 24.7178 92.4015L35.1995 74.2468C36.1743 72.5583 35.2657 70.406 33.3759 69.9268V69.9268C32.1003 69.6034 30.7651 70.167 30.1071 71.3067L19.6255 89.4614C18.9595 90.6149 19.1522 92.072 20.095 93.0127V93.0127ZM102.642 82.4077C103.781 83.0657 104.345 84.4009 104.022 85.6765V85.6765C103.542 87.5663 101.39 88.4749 99.7016 87.5001L68.8235 69.6726C67.1505 68.7067 66.8478 66.4173 68.2123 65.0498V65.0498C69.153 64.1069 70.6101 63.9143 71.7636 64.5802L102.642 82.4077Z" fill="#55D77A"/>
<g style="mix-blend-mode:multiply" opacity="0.5">
<path d="M73.481 105.434C71.8459 107.125 69.3496 104.345 68.5498 103.522L71.4323 100.554C72.2548 101.411 75.1872 103.657 73.481 105.434ZM67.0889 105.059L63.915 108.348C64.9196 109.332 67.8976 112.602 69.6909 110.747C71.5713 108.816 68.1026 106.027 67.0889 105.059ZM81.8187 118.451C74.751 125.76 63.1129 125.969 55.8033 118.901C48.4937 111.833 48.2901 100.198 55.3531 92.8856C62.4208 85.576 74.0551 85.374 81.3684 92.4354C88.6621 99.4939 88.8705 111.132 81.8187 118.451ZM75.7428 101.406L78.1163 98.9516L76.5932 97.541L74.3 99.8934C73.9022 99.5149 73.5045 99.1365 73.0815 98.7649L75.4115 96.3487L73.9135 94.9314L71.5492 97.3702C71.2219 97.0537 70.8854 96.7532 70.59 96.4551L68.5331 94.46L66.9783 96.0487C66.9783 96.0487 68.1104 97.106 68.0693 97.1036C68.6853 97.693 68.5552 98.2128 68.2932 98.5929L61.7965 105.318C61.588 105.496 61.1673 105.635 60.7511 105.289C60.7579 105.314 59.6602 104.234 59.6602 104.234L57.6493 105.729L59.5812 107.609C59.9471 107.969 60.2971 108.32 60.6563 108.655L58.2484 111.133L59.7439 112.591L62.1266 110.12C62.5311 110.524 62.9289 110.902 63.3016 111.287L60.9373 113.726L62.4328 115.185L64.8406 112.707C67.4671 114.967 69.859 116.051 72.3385 113.891C74.3776 112.2 74.3169 110.464 73.1924 108.732C74.5147 109.091 75.7894 108.871 76.9303 107.447C78.4728 105.511 77.5005 103.441 75.7428 101.406Z" fill="black"/>
</g>
<g style="mix-blend-mode:multiply">
<path d="M43.8848 59.1758L15.2324 108.803L8.83096 103.059L43.8848 59.1758Z" fill="#58BAA8"/>
</g>
<g style="mix-blend-mode:multiply">
<path d="M118.221 98.1713L52.1009 59.997L57.936 54.6165L115.444 96.1652L118.221 98.1713Z" fill="#58BAA8"/>
</g>
<g style="mix-blend-mode:multiply">
<path d="M109.768 166.005C99.2326 169.889 89.6105 158.47 95.2244 148.746L101.1 138.57C103.149 135.02 106.869 132.762 110.964 132.581L167.655 130.084C170.26 129.969 172.714 131.311 174.023 133.566V133.566C176.207 137.329 174.469 142.153 170.387 143.658L109.768 166.005Z" fill="#58BAA8"/>
</g>
</g>
</svg>
