<svg width="284" height="957" viewBox="0 0 284 957" fill="none" xmlns="http://www.w3.org/2000/svg">
<g filter="url(#filter0_d_6_284)">
<circle cx="142" cy="141.626" r="125.302" fill="white"/>
</g>
<circle cx="189.567" cy="170.502" r="34.5353" fill="#3E555C"/>
<circle cx="91.3072" cy="163.277" r="34.5353" fill="#3E555C"/>
<circle cx="90.4053" cy="163.277" r="12.5112" fill="#D9B488"/>
<path d="M87.0478 149.297C85.0073 132.05 98.4801 116.889 115.847 116.889H155.088C172.455 116.889 185.928 132.05 183.887 149.297L180.575 177.292C179.59 185.621 175.047 193.115 168.118 197.841L151.81 208.966C141.952 215.69 128.983 215.69 119.125 208.966L102.817 197.841C95.8884 193.115 91.3454 185.621 90.3599 177.292L87.0478 149.297Z" fill="#D9B488"/>
<circle cx="99.2232" cy="114.867" r="34.5353" fill="#3E555C"/>
<circle cx="149.685" cy="103.454" r="40.3153" fill="#3E555C"/>
<circle cx="192.693" cy="133.966" r="34.5353" fill="#3E555C"/>
<g style="mix-blend-mode:multiply">
<path d="M141.458 171.487H129.477L134.413 177.162H136.853L141.458 171.487Z" fill="#D9B488"/>
</g>
<g style="mix-blend-mode:multiply">
<path d="M119.062 187.057C119.062 188.53 120.256 189.723 121.729 189.723C123.202 189.723 124.396 188.53 124.396 187.057C124.396 185.584 123.202 184.39 121.729 184.39C120.256 184.39 119.062 185.584 119.062 187.057ZM147.478 187.057C147.478 188.53 148.672 189.723 150.145 189.723C151.617 189.723 152.811 188.53 152.811 187.057C152.811 185.584 151.617 184.39 150.145 184.39C148.672 184.39 147.478 185.584 147.478 187.057ZM121.584 187.535L121.779 187.594L122.069 186.637L121.874 186.578L121.584 187.535ZM121.779 187.594C131.077 190.411 141.005 190.39 150.292 187.535L149.998 186.579C140.901 189.376 131.177 189.396 122.069 186.637L121.779 187.594Z" fill="#F59C80"/>
</g>
<g filter="url(#filter1_d_6_284)">
<circle cx="142" cy="815.539" r="125.302" fill="white"/>
</g>
<path d="M91.2027 806.573C90.2151 796.016 98.5211 786.897 109.124 786.897H170.629C181.232 786.897 189.538 796.016 188.55 806.573L183.966 855.58C183.619 859.288 182.131 862.797 179.706 865.624L163.332 884.711C159.912 888.697 154.922 890.991 149.67 890.991H130.616C125.445 890.991 120.523 888.767 117.106 884.886L100.187 865.671C97.6739 862.817 96.1292 859.239 95.775 855.453L91.2027 806.573Z" fill="#FFE5CD"/>
<circle cx="97.7544" cy="839.379" r="15.1269" fill="#FFE5CD"/>
<circle cx="181.998" cy="839.379" r="15.1269" fill="#FFE5CD"/>
<path d="M84.1822 816.001L97.133 840.499L94.3335 817.325L99.1884 799.229L105.483 791.725L114.812 796.66L129.201 795.698L177.971 788.195L172.454 803.422L181.722 819.531V837.377L196.508 810.704L205.776 793.491L191.874 774.513L183.488 783.781L189.667 769.217L177.971 752.445L138.69 746.045L100.954 750.68L99.1884 740.087L84.1822 746.045L78.2239 765.686L87.4924 783.781L80.6513 795.698L84.1822 816.001Z" fill="#F59C80"/>
<g style="mix-blend-mode:multiply">
<path d="M135.157 831.372H143.273L145.262 853.957L139.215 856.313L133.168 853.957L135.157 831.372Z" fill="#FFE5CD"/>
</g>
<path d="M133.097 867.701L133.274 867.824C136.904 870.328 141.716 870.279 145.293 867.701V867.701" stroke="#633E3E" stroke-width="3" stroke-linecap="round"/>
<path d="M76.4698 344.106C75.6887 343.325 74.4224 343.325 73.6413 344.106L60.9134 356.834C60.1324 357.615 60.1324 358.881 60.9134 359.662C61.6945 360.443 62.9608 360.443 63.7418 359.662L75.0555 348.348L86.3693 359.662C87.1503 360.443 88.4166 360.443 89.1977 359.662C89.9787 358.881 89.9787 357.615 89.1977 356.834L76.4698 344.106ZM73.0555 611.645C73.0555 612.75 73.951 613.645 75.0555 613.645C76.1601 613.645 77.0555 612.75 77.0555 611.645H73.0555ZM73.0555 349.434C73.0555 350.538 73.951 351.434 75.0555 351.434C76.1601 351.434 77.0555 350.538 77.0555 349.434H73.0555ZM77.0555 357.261C77.0555 356.156 76.1601 355.261 75.0555 355.261C73.951 355.261 73.0555 356.156 73.0555 357.261H77.0555ZM73.0555 365.088C73.0555 366.193 73.951 367.088 75.0555 367.088C76.1601 367.088 77.0555 366.193 77.0555 365.088H73.0555ZM77.0555 372.915C77.0555 371.811 76.1601 370.915 75.0555 370.915C73.951 370.915 73.0555 371.811 73.0555 372.915H77.0555ZM73.0555 380.742C73.0555 381.847 73.951 382.742 75.0555 382.742C76.1601 382.742 77.0555 381.847 77.0555 380.742H73.0555ZM77.0555 388.57C77.0555 387.465 76.1601 386.57 75.0555 386.57C73.951 386.57 73.0555 387.465 73.0555 388.57H77.0555ZM73.0555 396.397C73.0555 397.501 73.951 398.397 75.0555 398.397C76.1601 398.397 77.0555 397.501 77.0555 396.397H73.0555ZM77.0555 404.224C77.0555 403.119 76.1601 402.224 75.0555 402.224C73.951 402.224 73.0555 403.119 73.0555 404.224H77.0555ZM73.0555 412.051C73.0555 413.156 73.951 414.051 75.0555 414.051C76.1601 414.051 77.0555 413.156 77.0555 412.051H73.0555ZM77.0555 419.878C77.0555 418.774 76.1601 417.878 75.0555 417.878C73.951 417.878 73.0555 418.774 73.0555 419.878H77.0555ZM73.0555 427.706C73.0555 428.81 73.951 429.706 75.0555 429.706C76.1601 429.706 77.0555 428.81 77.0555 427.706H73.0555ZM77.0555 435.533C77.0555 434.428 76.1601 433.533 75.0555 433.533C73.951 433.533 73.0555 434.428 73.0555 435.533H77.0555ZM73.0555 443.36C73.0555 444.465 73.951 445.36 75.0555 445.36C76.1601 445.36 77.0555 444.465 77.0555 443.36H73.0555ZM77.0555 451.187C77.0555 450.083 76.1601 449.187 75.0555 449.187C73.951 449.187 73.0555 450.083 73.0555 451.187H77.0555ZM73.0555 459.015C73.0555 460.119 73.951 461.015 75.0555 461.015C76.1601 461.015 77.0555 460.119 77.0555 459.015H73.0555ZM77.0555 466.842C77.0555 465.737 76.1601 464.842 75.0555 464.842C73.951 464.842 73.0555 465.737 73.0555 466.842H77.0555ZM73.0555 474.669C73.0555 475.774 73.951 476.669 75.0555 476.669C76.1601 476.669 77.0555 475.774 77.0555 474.669H73.0555ZM77.0555 482.496C77.0555 481.392 76.1601 480.496 75.0555 480.496C73.951 480.496 73.0555 481.392 73.0555 482.496H77.0555ZM73.0555 490.323C73.0555 491.428 73.951 492.323 75.0555 492.323C76.1601 492.323 77.0555 491.428 77.0555 490.323H73.0555ZM77.0555 498.151C77.0555 497.046 76.1601 496.151 75.0555 496.151C73.951 496.151 73.0555 497.046 73.0555 498.151H77.0555ZM73.0555 505.978C73.0555 507.082 73.951 507.978 75.0555 507.978C76.1601 507.978 77.0555 507.082 77.0555 505.978H73.0555ZM77.0555 513.805C77.0555 512.7 76.1601 511.805 75.0555 511.805C73.951 511.805 73.0555 512.7 73.0555 513.805H77.0555ZM73.0555 521.632C73.0555 522.737 73.951 523.632 75.0555 523.632C76.1601 523.632 77.0555 522.737 77.0555 521.632H73.0555ZM77.0555 529.459C77.0555 528.355 76.1601 527.459 75.0555 527.459C73.951 527.459 73.0555 528.355 73.0555 529.459H77.0555ZM73.0555 537.287C73.0555 538.391 73.951 539.287 75.0555 539.287C76.1601 539.287 77.0555 538.391 77.0555 537.287H73.0555ZM77.0555 545.114C77.0555 544.009 76.1601 543.114 75.0555 543.114C73.951 543.114 73.0555 544.009 73.0555 545.114H77.0555ZM73.0555 552.941C73.0555 554.046 73.951 554.941 75.0555 554.941C76.1601 554.941 77.0555 554.046 77.0555 552.941H73.0555ZM77.0555 560.768C77.0555 559.664 76.1601 558.768 75.0555 558.768C73.951 558.768 73.0555 559.664 73.0555 560.768H77.0555ZM73.0555 568.595C73.0555 569.7 73.951 570.595 75.0555 570.595C76.1601 570.595 77.0555 569.7 77.0555 568.595H73.0555ZM77.0555 576.423C77.0555 575.318 76.1601 574.423 75.0555 574.423C73.951 574.423 73.0555 575.318 73.0555 576.423H77.0555ZM73.0555 584.25C73.0555 585.354 73.951 586.25 75.0555 586.25C76.1601 586.25 77.0555 585.354 77.0555 584.25H73.0555ZM77.0555 592.077C77.0555 590.973 76.1601 590.077 75.0555 590.077C73.951 590.077 73.0555 590.973 73.0555 592.077H77.0555ZM73.0555 599.904C73.0555 601.009 73.951 601.904 75.0555 601.904C76.1601 601.904 77.0555 601.009 77.0555 599.904H73.0555ZM77.0555 607.731C77.0555 606.627 76.1601 605.731 75.0555 605.731C73.951 605.731 73.0555 606.627 73.0555 607.731H77.0555ZM73.0555 345.52V349.434H77.0555V345.52H73.0555ZM73.0555 357.261V365.088H77.0555V357.261H73.0555ZM73.0555 372.915V380.742H77.0555V372.915H73.0555ZM73.0555 388.57V396.397H77.0555V388.57H73.0555ZM73.0555 404.224V412.051H77.0555V404.224H73.0555ZM73.0555 419.878V427.706H77.0555V419.878H73.0555ZM73.0555 435.533V443.36H77.0555V435.533H73.0555ZM73.0555 451.187V459.015H77.0555V451.187H73.0555ZM73.0555 466.842V474.669H77.0555V466.842H73.0555ZM73.0555 482.496V490.323H77.0555V482.496H73.0555ZM73.0555 498.151V505.978H77.0555V498.151H73.0555ZM73.0555 513.805V521.632H77.0555V513.805H73.0555ZM73.0555 529.459V537.287H77.0555V529.459H73.0555ZM73.0555 545.114V552.941H77.0555V545.114H73.0555ZM73.0555 560.768V568.595H77.0555V560.768H73.0555ZM73.0555 576.423V584.25H77.0555V576.423H73.0555ZM73.0555 592.077V599.904H77.0555V592.077H73.0555ZM73.0555 607.731V611.645H77.0555V607.731H73.0555Z" fill="white"/>
<path d="M207.53 613.059C208.312 613.84 209.578 613.84 210.359 613.059L223.087 600.331C223.868 599.55 223.868 598.284 223.087 597.503C222.306 596.722 221.039 596.722 220.258 597.503L208.945 608.817L197.631 597.503C196.85 596.722 195.584 596.722 194.803 597.503C194.022 598.284 194.022 599.55 194.803 600.331L207.53 613.059ZM210.945 345.52C210.945 344.415 210.049 343.52 208.945 343.52C207.84 343.52 206.945 344.415 206.945 345.52L210.945 345.52ZM210.945 607.732C210.945 606.627 210.049 605.732 208.945 605.732C207.84 605.732 206.945 606.627 206.945 607.732L210.945 607.732ZM206.945 599.904C206.945 601.009 207.84 601.904 208.945 601.904C210.049 601.904 210.945 601.009 210.945 599.904L206.945 599.904ZM210.945 592.077C210.945 590.973 210.049 590.077 208.945 590.077C207.84 590.077 206.945 590.973 206.945 592.077L210.945 592.077ZM206.945 584.25C206.945 585.355 207.84 586.25 208.945 586.25C210.049 586.25 210.945 585.355 210.945 584.25L206.945 584.25ZM210.945 576.423C210.945 575.318 210.049 574.423 208.945 574.423C207.84 574.423 206.945 575.318 206.945 576.423L210.945 576.423ZM206.945 568.596C206.945 569.7 207.84 570.596 208.945 570.596C210.049 570.596 210.945 569.7 210.945 568.596L206.945 568.596ZM210.945 560.768C210.945 559.664 210.049 558.768 208.945 558.768C207.84 558.768 206.945 559.664 206.945 560.768L210.945 560.768ZM206.945 552.941C206.945 554.046 207.84 554.941 208.945 554.941C210.049 554.941 210.945 554.046 210.945 552.941L206.945 552.941ZM210.945 545.114C210.945 544.009 210.049 543.114 208.945 543.114C207.84 543.114 206.945 544.009 206.945 545.114L210.945 545.114ZM206.945 537.287C206.945 538.391 207.84 539.287 208.945 539.287C210.049 539.287 210.945 538.391 210.945 537.287L206.945 537.287ZM210.945 529.459C210.945 528.355 210.049 527.459 208.945 527.459C207.84 527.459 206.945 528.355 206.945 529.459L210.945 529.459ZM206.945 521.632C206.945 522.737 207.84 523.632 208.945 523.632C210.049 523.632 210.945 522.737 210.945 521.632L206.945 521.632ZM210.945 513.805C210.945 512.7 210.049 511.805 208.945 511.805C207.84 511.805 206.945 512.7 206.945 513.805L210.945 513.805ZM206.945 505.978C206.945 507.082 207.84 507.978 208.945 507.978C210.049 507.978 210.945 507.082 210.945 505.978L206.945 505.978ZM210.945 498.151C210.945 497.046 210.049 496.151 208.945 496.151C207.84 496.151 206.945 497.046 206.945 498.151L210.945 498.151ZM206.945 490.323C206.945 491.428 207.84 492.323 208.945 492.323C210.049 492.323 210.945 491.428 210.945 490.323L206.945 490.323ZM210.945 482.496C210.945 481.392 210.049 480.496 208.945 480.496C207.84 480.496 206.945 481.392 206.945 482.496L210.945 482.496ZM206.945 474.669C206.945 475.774 207.84 476.669 208.945 476.669C210.049 476.669 210.945 475.774 210.945 474.669L206.945 474.669ZM210.945 466.842C210.945 465.737 210.049 464.842 208.945 464.842C207.84 464.842 206.945 465.737 206.945 466.842L210.945 466.842ZM206.945 459.015C206.945 460.119 207.84 461.015 208.945 461.015C210.049 461.015 210.945 460.119 210.945 459.015L206.945 459.015ZM210.945 451.187C210.945 450.083 210.049 449.187 208.945 449.187C207.84 449.187 206.945 450.083 206.945 451.187L210.945 451.187ZM206.945 443.36C206.945 444.465 207.84 445.36 208.945 445.36C210.049 445.36 210.945 444.465 210.945 443.36L206.945 443.36ZM210.945 435.533C210.945 434.428 210.049 433.533 208.945 433.533C207.84 433.533 206.945 434.428 206.945 435.533L210.945 435.533ZM206.945 427.706C206.945 428.81 207.84 429.706 208.945 429.706C210.049 429.706 210.945 428.81 210.945 427.706L206.945 427.706ZM210.945 419.879C210.945 418.774 210.049 417.879 208.945 417.879C207.84 417.879 206.945 418.774 206.945 419.879L210.945 419.879ZM206.945 412.051C206.945 413.156 207.84 414.051 208.945 414.051C210.049 414.051 210.945 413.156 210.945 412.051L206.945 412.051ZM210.945 404.224C210.945 403.12 210.049 402.224 208.945 402.224C207.84 402.224 206.945 403.12 206.945 404.224L210.945 404.224ZM206.945 396.397C206.945 397.501 207.84 398.397 208.945 398.397C210.049 398.397 210.945 397.501 210.945 396.397L206.945 396.397ZM210.945 388.57C210.945 387.465 210.049 386.57 208.945 386.57C207.84 386.57 206.945 387.465 206.945 388.57L210.945 388.57ZM206.945 380.743C206.945 381.847 207.84 382.743 208.945 382.743C210.049 382.743 210.945 381.847 210.945 380.743L206.945 380.743ZM210.945 372.915C210.945 371.811 210.049 370.915 208.945 370.915C207.84 370.915 206.945 371.811 206.945 372.915L210.945 372.915ZM206.945 365.088C206.945 366.193 207.84 367.088 208.945 367.088C210.049 367.088 210.945 366.193 210.945 365.088L206.945 365.088ZM210.945 357.261C210.945 356.156 210.049 355.261 208.945 355.261C207.84 355.261 206.945 356.156 206.945 357.261L210.945 357.261ZM206.945 349.434C206.945 350.538 207.84 351.434 208.945 351.434C210.049 351.434 210.945 350.538 210.945 349.434L206.945 349.434ZM210.945 611.645L210.945 607.732L206.945 607.732L206.945 611.645L210.945 611.645ZM210.945 599.904L210.945 592.077L206.945 592.077L206.945 599.904L210.945 599.904ZM210.945 584.25L210.945 576.423L206.945 576.423L206.945 584.25L210.945 584.25ZM210.945 568.596L210.945 560.768L206.945 560.768L206.945 568.596L210.945 568.596ZM210.945 552.941L210.945 545.114L206.945 545.114L206.945 552.941L210.945 552.941ZM210.945 537.287L210.945 529.459L206.945 529.459L206.945 537.287L210.945 537.287ZM210.945 521.632L210.945 513.805L206.945 513.805L206.945 521.632L210.945 521.632ZM210.945 505.978L210.945 498.151L206.945 498.151L206.945 505.978L210.945 505.978ZM210.945 490.323L210.945 482.496L206.945 482.496L206.945 490.323L210.945 490.323ZM210.945 474.669L210.945 466.842L206.945 466.842L206.945 474.669L210.945 474.669ZM210.945 459.015L210.945 451.187L206.945 451.187L206.945 459.015L210.945 459.015ZM210.945 443.36L210.945 435.533L206.945 435.533L206.945 443.36L210.945 443.36ZM210.945 427.706L210.945 419.879L206.945 419.879L206.945 427.706L210.945 427.706ZM210.945 412.051L210.945 404.224L206.945 404.224L206.945 412.051L210.945 412.051ZM210.945 396.397L210.945 388.57L206.945 388.57L206.945 396.397L210.945 396.397ZM210.945 380.743L210.945 372.915L206.945 372.915L206.945 380.743L210.945 380.743ZM210.945 365.088L210.945 357.261L206.945 357.261L206.945 365.088L210.945 365.088ZM210.945 349.434L210.945 345.52L206.945 345.52L206.945 349.434L210.945 349.434Z" fill="white"/>
<g filter="url(#filter2_d_6_284)">
<circle cx="208.945" cy="478.583" r="46.0706" fill="white"/>
</g>
<g style="mix-blend-mode:multiply" opacity="0.5">
<path d="M214.404 475.074C213.649 478.094 208.948 476.56 207.487 476.146L208.826 470.837C210.337 471.275 215.183 471.909 214.404 475.074ZM206.829 478.873L205.368 484.742C207.17 485.205 212.748 486.982 213.576 483.671C214.453 480.213 208.632 479.312 206.829 478.873ZM232.574 484.474C229.31 497.527 216.109 505.466 203.054 502.203C189.999 498.939 182.066 485.741 185.322 472.688C188.586 459.635 201.787 451.706 214.842 454.959C227.873 458.223 235.813 471.421 232.574 484.474ZM214.331 468.962L215.427 464.579L212.748 463.97L211.676 468.183C210.97 468.012 210.263 467.842 209.533 467.696L210.604 463.385L207.95 462.752L206.854 467.111C206.269 466.965 205.684 466.843 205.149 466.697L201.471 465.772L200.74 468.621C200.74 468.621 202.737 469.084 202.689 469.108C203.785 469.376 203.98 470.058 203.931 470.667L200.935 482.672C200.813 483.013 200.423 483.451 199.717 483.33C199.742 483.354 197.769 482.843 197.769 482.843L196.453 485.887L199.912 486.763C200.57 486.934 201.203 487.104 201.836 487.25L200.716 491.682L203.395 492.364L204.491 487.957C205.222 488.151 205.928 488.322 206.61 488.517L205.514 492.876L208.193 493.558L209.314 489.125C213.82 489.978 217.278 489.637 218.691 485.521C219.909 482.234 218.691 480.286 216.255 479.044C218.009 478.581 219.324 477.485 219.689 475.099C220.177 471.86 217.692 470.131 214.331 468.962Z" fill="#FF9110"/>
</g>
<g filter="url(#filter3_d_6_284)">
<circle cx="75.0556" cy="478.583" r="46.0706" fill="white"/>
</g>
<circle cx="75.0555" cy="478.583" r="24.353" fill="#46CA6B"/>
<path d="M66.4423 483.751H69.8876C69.8876 485.611 72.2476 487.196 75.0555 487.196C77.8634 487.196 80.2235 485.611 80.2235 483.751C80.2235 481.856 78.4319 481.167 74.6421 480.254C70.9901 479.341 66.4423 478.204 66.4423 473.415C66.4423 470.331 68.9746 467.713 72.4715 466.834V463.079H77.6395V466.834C81.1365 467.713 83.6688 470.331 83.6688 473.415H80.2235C80.2235 471.554 77.8634 469.969 75.0555 469.969C72.2476 469.969 69.8876 471.554 69.8876 473.415C69.8876 475.31 71.6791 475.999 75.4689 476.912C79.121 477.825 83.6688 478.962 83.6688 483.751C83.6688 486.834 81.1365 489.453 77.6395 490.331V494.086H72.4715V490.331C68.9746 489.453 66.4423 486.834 66.4423 483.751Z" fill="white"/>
<defs>
<filter id="filter0_d_6_284" x="0.697571" y="0.3237" width="282.605" height="282.605" filterUnits="userSpaceOnUse" color-interpolation-filters="sRGB">
<feFlood flood-opacity="0" result="BackgroundImageFix"/>
<feColorMatrix in="SourceAlpha" type="matrix" values="0 0 0 0 0 0 0 0 0 0 0 0 0 0 0 0 0 0 127 0" result="hardAlpha"/>
<feOffset/>
<feGaussianBlur stdDeviation="8"/>
<feComposite in2="hardAlpha" operator="out"/>
<feColorMatrix type="matrix" values="0 0 0 0 0.860463 0 0 0 0 0.809722 0 0 0 0 1 0 0 0 1 0"/>
<feBlend mode="normal" in2="BackgroundImageFix" result="effect1_dropShadow_6_284"/>
<feBlend mode="normal" in="SourceGraphic" in2="effect1_dropShadow_6_284" result="shape"/>
</filter>
<filter id="filter1_d_6_284" x="0.697571" y="674.237" width="282.605" height="282.605" filterUnits="userSpaceOnUse" color-interpolation-filters="sRGB">
<feFlood flood-opacity="0" result="BackgroundImageFix"/>
<feColorMatrix in="SourceAlpha" type="matrix" values="0 0 0 0 0 0 0 0 0 0 0 0 0 0 0 0 0 0 127 0" result="hardAlpha"/>
<feOffset/>
<feGaussianBlur stdDeviation="8"/>
<feComposite in2="hardAlpha" operator="out"/>
<feColorMatrix type="matrix" values="0 0 0 0 0.860463 0 0 0 0 0.809722 0 0 0 0 1 0 0 0 1 0"/>
<feBlend mode="normal" in2="BackgroundImageFix" result="effect1_dropShadow_6_284"/>
<feBlend mode="normal" in="SourceGraphic" in2="effect1_dropShadow_6_284" result="shape"/>
</filter>
<filter id="filter2_d_6_284" x="146.874" y="416.512" width="124.141" height="124.141" filterUnits="userSpaceOnUse" color-interpolation-filters="sRGB">
<feFlood flood-opacity="0" result="BackgroundImageFix"/>
<feColorMatrix in="SourceAlpha" type="matrix" values="0 0 0 0 0 0 0 0 0 0 0 0 0 0 0 0 0 0 127 0" result="hardAlpha"/>
<feOffset/>
<feGaussianBlur stdDeviation="8"/>
<feComposite in2="hardAlpha" operator="out"/>
<feColorMatrix type="matrix" values="0 0 0 0 0.860463 0 0 0 0 0.809722 0 0 0 0 1 0 0 0 1 0"/>
<feBlend mode="normal" in2="BackgroundImageFix" result="effect1_dropShadow_6_284"/>
<feBlend mode="normal" in="SourceGraphic" in2="effect1_dropShadow_6_284" result="shape"/>
</filter>
<filter id="filter3_d_6_284" x="12.9849" y="416.512" width="124.141" height="124.141" filterUnits="userSpaceOnUse" color-interpolation-filters="sRGB">
<feFlood flood-opacity="0" result="BackgroundImageFix"/>
<feColorMatrix in="SourceAlpha" type="matrix" values="0 0 0 0 0 0 0 0 0 0 0 0 0 0 0 0 0 0 127 0" result="hardAlpha"/>
<feOffset/>
<feGaussianBlur stdDeviation="8"/>
<feComposite in2="hardAlpha" operator="out"/>
<feColorMatrix type="matrix" values="0 0 0 0 0.860463 0 0 0 0 0.809722 0 0 0 0 1 0 0 0 1 0"/>
<feBlend mode="normal" in2="BackgroundImageFix" result="effect1_dropShadow_6_284"/>
<feBlend mode="normal" in="SourceGraphic" in2="effect1_dropShadow_6_284" result="shape"/>
</filter>
</defs>
</svg>
